<?xml version="1.0" encoding="UTF-8"?>
<!-- theme-handling: A (theme-neutral) -->
<!-- conforms to: pm-documents:ref-svg-diagrams (visual-language + diagram-type-block, vertical layout with row of outputs) -->
<svg xmlns="http://www.w3.org/2000/svg" viewBox="0 0 1200 480"
     role="img" aria-labelledby="title desc"
     font-family="ui-sans-serif, -apple-system, system-ui, 'Segoe UI', sans-serif">
  <title id="title">Variant emission — one canonical SKILL becomes eight emitted agent files at build time</title>
  <desc  id="desc">The build target reads the single role-eligible canonical agent (plan-marshall:execution-context) and emits eight output files: one canonical no-suffix variant that inherits the parent session model, plus seven level-suffixed variants (level-1, level-2, level-3, level-4, level-5, level-6, level-7) with model and effort baked into the frontmatter. The dispatch-time resolver picks which variant a Task: call routes to.</desc>

  <defs>
    <marker id="arrow" viewBox="0 0 10 10" refX="9" refY="5"
            markerWidth="9" markerHeight="9" orient="auto">
      <path d="M0,0 L10,5 L0,10 z" class="arrow-fill"/>
    </marker>
    <style>
      .col-header { font-size: 14px; font-weight: 600; fill: #6e7681; text-anchor: middle; }
      .col-sub    { font-size: 11px; fill: #6e7681; text-anchor: middle; font-style: italic; }
      .item       { font-size: 12px; fill: #6e7681; font-family: ui-monospace, "SF Mono", Menlo, Consolas, monospace; text-anchor: middle; }
      .item-bold  { font-size: 12px; fill: #6e7681; font-family: ui-monospace, "SF Mono", Menlo, Consolas, monospace; font-weight: 700; text-anchor: middle; }
      .arrow-lbl  { font-size: 11px; fill: #6e7681; text-anchor: middle; font-style: italic; }
      .stroke     { stroke: #6e7681; stroke-width: 1.2; fill: none; }
      .arrow      { stroke: #6e7681; stroke-width: 1.5; fill: none; }
      .arrow-fill { fill: #6e7681; }
    </style>
  </defs>

  <!-- ============= SOURCE: canonical SKILL declaration ============= -->
  <rect class="stroke" x="400" y="40" width="400" height="105" rx="6" ry="6"/>
  <text x="600" y="65" class="col-header">plan-marshall:execution-context.md</text>
  <text x="600" y="83" class="col-sub">the single role-eligible canonical agent</text>
  <text x="600" y="108" class="item">implements: ext-point-dynamic-level-executor</text>
  <text x="600" y="128" class="item">levels: [level-1, level-2, …, level-7]</text>

  <!-- ============= Emitter arrow ============= -->
  <line class="arrow" x1="600" y1="148" x2="600" y2="218" marker-end="url(#arrow)"/>
  <text x="615" y="170" class="arrow-lbl" text-anchor="start">marketplace/targets/claude/emitter.py</text>
  <text x="615" y="186" class="arrow-lbl" text-anchor="start">reads implements + levels,</text>
  <text x="615" y="202" class="arrow-lbl" text-anchor="start">strips them on canonical, bakes model + effort on variants</text>

  <!-- ============= OUTPUTS: 8 emitted files ============= -->
  <!-- 8 boxes at y=230..345, width 130, gutter 12 → total 1124 → margin 38 each side -->

  <!-- Box 1: canonical (inherit) -->
  <rect class="stroke" x="38" y="230" width="130" height="115" rx="6" ry="6"/>
  <text x="103" y="252" class="item-bold">execution-</text>
  <text x="103" y="268" class="item-bold">context.md</text>
  <text x="103" y="295" class="col-sub">canonical</text>
  <text x="103" y="318" class="item">inherit</text>
  <text x="103" y="336" class="col-sub">(parent)</text>

  <!-- Box 2: level-1 (haiku) -->
  <rect class="stroke" x="180" y="230" width="130" height="115" rx="6" ry="6"/>
  <text x="245" y="252" class="item-bold">…-level-1.md</text>
  <text x="245" y="295" class="col-sub">level-1</text>
  <text x="245" y="318" class="item">haiku</text>
  <text x="245" y="336" class="col-sub">(no effort)</text>

  <!-- Box 3: level-2 -->
  <rect class="stroke" x="322" y="230" width="130" height="115" rx="6" ry="6"/>
  <text x="387" y="252" class="item-bold">…-level-2.md</text>
  <text x="387" y="295" class="col-sub">level-2</text>
  <text x="387" y="318" class="item">sonnet</text>
  <text x="387" y="336" class="col-sub">effort: medium</text>

  <!-- Box 4: level-3 -->
  <rect class="stroke" x="464" y="230" width="130" height="115" rx="6" ry="6"/>
  <text x="529" y="252" class="item-bold">…-level-3.md</text>
  <text x="529" y="295" class="col-sub">level-3</text>
  <text x="529" y="318" class="item">sonnet</text>
  <text x="529" y="336" class="col-sub">effort: high</text>

  <!-- Box 5: level-4 -->
  <rect class="stroke" x="606" y="230" width="130" height="115" rx="6" ry="6"/>
  <text x="671" y="252" class="item-bold">…-level-4.md</text>
  <text x="671" y="295" class="col-sub">level-4</text>
  <text x="671" y="318" class="item">opus</text>
  <text x="671" y="336" class="col-sub">effort: medium</text>

  <!-- Box 6: level-5 -->
  <rect class="stroke" x="748" y="230" width="130" height="115" rx="6" ry="6"/>
  <text x="813" y="252" class="item-bold">…-level-5.md</text>
  <text x="813" y="295" class="col-sub">level-5</text>
  <text x="813" y="318" class="item">opus</text>
  <text x="813" y="336" class="col-sub">effort: high</text>

  <!-- Box 7: level-6 (opus-xhigh build guard) -->
  <rect class="stroke" x="890" y="230" width="130" height="115" rx="6" ry="6"/>
  <text x="955" y="252" class="item-bold">…-level-6.md</text>
  <text x="955" y="295" class="col-sub">level-6</text>
  <text x="955" y="318" class="item">opus</text>
  <text x="955" y="336" class="col-sub">effort: xhigh</text>

  <!-- Box 8: level-7 (fable-max build guard) -->
  <rect class="stroke" x="1032" y="230" width="130" height="115" rx="6" ry="6"/>
  <text x="1097" y="252" class="item-bold">…-level-7.md</text>
  <text x="1097" y="295" class="col-sub">level-7</text>
  <text x="1097" y="318" class="item">fable</text>
  <text x="1097" y="336" class="col-sub">effort: max</text>

  <!-- Fan-out lines from emitter arrow base to each box top -->
  <line class="arrow" x1="600" y1="220" x2="103" y2="226"/>
  <line class="arrow" x1="600" y1="220" x2="245" y2="226"/>
  <line class="arrow" x1="600" y1="220" x2="387" y2="226"/>
  <line class="arrow" x1="600" y1="220" x2="529" y2="226"/>
  <line class="arrow" x1="600" y1="220" x2="671" y2="226"/>
  <line class="arrow" x1="600" y1="220" x2="813" y2="226"/>
  <line class="arrow" x1="600" y1="220" x2="955" y2="226"/>
  <line class="arrow" x1="600" y1="220" x2="1097" y2="226"/>

  <!-- ============= Footer ============= -->
  <text x="600" y="395" class="col-sub">The resolver picks one variant per dispatch via  manage-config effort resolve-target --phase &lt;phase&gt; [--role &lt;subkey&gt;]</text>
  <text x="600" y="415" class="col-sub">level-6 (opus, effort: xhigh) and level-7 (fable, effort: max) emit only when the resolved alias accepts the gated effort.</text>

</svg>
